<svg xmlns="http://www.w3.org/2000/svg" viewBox="0 0 172.066 35.523">
  <defs>
    <style>
      .cls-1 {
        fill: #333;
      }
    </style>
  </defs>
  <path id="パス_92" data-name="パス 92" class="cls-1" d="M161,23.527c-.436-2.033-1.888-8.685-1.975-9,.232-.29,4.909-6.506,4.909-6.506l-3.892.029s-2.963,3.776-4.3,5.49C156.178,10.921,158.008,0,158.008,0h-3.6l-3.863,23.527H138.112a3.969,3.969,0,0,0,.726-.668A5.5,5.5,0,0,0,139.8,21.2a9.993,9.993,0,0,0,.523-2.178l.232-1.51h-3.311l-.232,1.539-.174.9-.2.668-.261.465-.378.261-.552.087c-.7,0-.784-.29-.842-.407a2.829,2.829,0,0,1-.087-1.075l.145-1.365.755-4.763a7.428,7.428,0,0,1,.7-2.614,1.162,1.162,0,0,1,1.133-.523c.639,0,.726.261.755.349a2.287,2.287,0,0,1,.087.959l-.116.988-.232,1.394h3.311l.2-1.249.145-1.278v-.9a3.7,3.7,0,0,0-.465-1.685,2.739,2.739,0,0,0-1.307-1.1,5.636,5.636,0,0,0-2.149-.349,6.059,6.059,0,0,0-2.411.436,3.954,3.954,0,0,0-1.714,1.365,6.46,6.46,0,0,0-.988,2,18.992,18.992,0,0,0-.61,2.643L131.2,17.8l-.232,1.8v.755a5.558,5.558,0,0,0,.378,2.062,2.9,2.9,0,0,0,.842,1.133H120.336l.029-.639.29-2.73,1.075-7,.116-1.133a4.793,4.793,0,0,0-.581-2.817c-.581-.929-1.714-1.394-3.311-1.394a5.594,5.594,0,0,0-3.631,1.133,6.058,6.058,0,0,0-1.917,3.573l-.058.261c0,.058-.145.784-.145.784l.494.029,3.021.116.2-1.1c.261-1.656,1.017-1.83,1.539-1.83.61,0,.7.232.726.32a2.752,2.752,0,0,1,.058.639v.29l-.116,1.075s-.087.552-.145.842c-.319.116-1.365.552-1.365.552l-1.307.581-1.336.726-.988.755A3.7,3.7,0,0,0,112,17.66l-.581,1.162a6.317,6.317,0,0,0-.436,1.539l-.058.465a3.7,3.7,0,0,0,.61,2.295,1.856,1.856,0,0,0,.378.436H101.66l.378-2.353H96.577c.145-.929,2.992-19.228,2.992-19.228H95.822l-3.34,21.552H87.108l-.174,1.452h84.958l.174-1.452Zm-43.859-3.485a3.212,3.212,0,0,1-.784.726,1.535,1.535,0,0,1-.9.349.548.548,0,0,1-.552-.29,1.515,1.515,0,0,1-.145-.668v-.145l.029-.349a3.079,3.079,0,0,1,.29-.871l.465-.7.726-.61.842-.523s.261-.145.523-.261C117.519,17.718,117.17,19.838,117.141,20.041Zm37.033,3.485c.232-1.452.842-5.315.871-5.49.087-.116.552-.668,1.017-1.22.232,1.133,1.075,5.2,1.394,6.71Zm-72.324-9.44L81.3,13.1a2.53,2.53,0,0,0-.929-.7,3.088,3.088,0,0,0-1.307-.261,4.423,4.423,0,0,0-2.5.929c0-.058.116-.726.116-.726H73.108L70.7,28.087H57.888c1.539-.755,2.5-2.324,2.846-4.676l.2-1.1H57.423l-.2,1.307a4.194,4.194,0,0,1-.581,1.743,1.128,1.128,0,0,1-1.017.436l-.378-.029-.145-.058-.232-.2h0l-.058-.116-.116-.378-.029-.29v-.494l.029-.494.087-.668.058-.523s.174-1.191.261-1.685h5.954l.261-1.6.29-2.353v-.494a7.013,7.013,0,0,0-.29-2.207,2.791,2.791,0,0,0-1.278-1.539,5.011,5.011,0,0,0-2.382-.494,6.16,6.16,0,0,0-2.324.407,4.1,4.1,0,0,0-1.714,1.278,6.944,6.944,0,0,0-1.075,2,16.266,16.266,0,0,0-.639,2.759l-.552,3.515-.2,1.8c0,.029-.029.9-.029.9a4.8,4.8,0,0,0,.465,2.062,2.875,2.875,0,0,0,1.133,1.22h-13.1l.407-2.527-.581.058-.988.058c-.407,0-.61-.087-.668-.174a.836.836,0,0,1-.087-.465v-.145l.058-.436s1.365-8.772,1.481-9.44h2.44l.407-2.672h-2.44c.116-.784.7-4.473.7-4.473H36.772s-.61,3.834-.7,4.473h-1.6l-.407,2.672h1.6c-.145.9-1.481,9.5-1.481,9.5l-.087.726v.261a3.791,3.791,0,0,0,.494,2,2.483,2.483,0,0,0,.552.552H20.071a6.447,6.447,0,0,0,1.423-.871,6.3,6.3,0,0,0,2.12-3.95l.087-.784a5.89,5.89,0,0,0-.436-2.7,9.521,9.521,0,0,0-1.888-2.846l-3.079-3.2a3.244,3.244,0,0,1-.755-1.191,3.091,3.091,0,0,1-.116-.959l.058-.407a2.22,2.22,0,0,1,2.382-2h.2a1.615,1.615,0,0,1,.871.2,1.282,1.282,0,0,1,.523.639,4.609,4.609,0,0,1,.232,1.133v.929l-.087,1.162.581-.145,2.817-.755.029-.523a6.4,6.4,0,0,0-.959-4.27,4.607,4.607,0,0,0-3.834-1.481,6.33,6.33,0,0,0-4.183,1.423,6.055,6.055,0,0,0-2.033,3.863l-.087.929a5.549,5.549,0,0,0,.2,1.888,5.472,5.472,0,0,0,1.336,2.237l3.05,3.224.639.726.465.668.349.7.145.784V23l-.058.436a2.937,2.937,0,0,1-.755,1.656,2.673,2.673,0,0,1-1.6.465,1.78,1.78,0,0,1-1.1-.29,1.679,1.679,0,0,1-.61-.842,4.134,4.134,0,0,1-.232-1.307V22.046l.087-1.162-.581.145-2.934.784-.058.871a6.833,6.833,0,0,0,.959,4.241,3.677,3.677,0,0,0,1.423,1.249H.174L0,29.627H70.523l-.988,5.9h3.573S74.066,29.1,74.27,27.8a3.074,3.074,0,0,0,2.062.929c2.73,0,4.444-2.237,5.141-6.622l.581-3.631.116-.959c0-.029.029-.407.029-.407,0-.029.029-.668.029-.668l-.058-1.162C82.141,15.191,81.851,14.087,81.851,14.087ZM55.564,18.154a7.383,7.383,0,0,1,.726-2.614,1.209,1.209,0,0,1,1.1-.523.838.838,0,0,1,.668.2,1,1,0,0,1,.174.726v.349c0-.029-.145,1.22-.145,1.22l-.145,1.017h-2.44C55.535,18.357,55.564,18.154,55.564,18.154Zm22.917.145L77.9,21.929l-.232,1.336-.261,1.046-.349.813-.407.407a1,1,0,0,1-.523.145,2.371,2.371,0,0,1-1.452-.494c.087-.523,1.394-8.975,1.452-9.353a3.055,3.055,0,0,1,1.685-.668.657.657,0,0,1,.639.29,1.818,1.818,0,0,1,.2,1.046Z"/>
</svg>
