<svg id="レイヤー_1" data-name="レイヤー 1" xmlns="http://www.w3.org/2000/svg" viewBox="0 0 100 100"><defs><style>.cls-1{fill:#010002;}</style></defs><title>friends_plus</title><path d="M33,26.76A10.28,10.28,0,1,1,22.81,37.08,10.3,10.3,0,0,1,33,26.76m0-6.54A16.82,16.82,0,1,0,49.89,37,16.82,16.82,0,0,0,33,20.22Z"/><path d="M75.76,40.88A14,14,0,0,1,58.68,41,24.65,24.65,0,0,0,43.54,55.44,17.85,17.85,0,0,1,22,55.3,33.16,33.16,0,0,0,.12,86.54,46.13,46.13,0,0,0,66,86.93c0-.18,0-.34,0-.52a33.59,33.59,0,0,0-1.66-10.28,30.69,30.69,0,0,0,3.29.16A36,36,0,0,0,93,65.65c0-.13,0-.27,0-.4A25.89,25.89,0,0,0,75.76,40.88ZM33.38,94A39.29,39.29,0,0,1,6.79,83.88,26.69,26.69,0,0,1,21.38,62.66a24.4,24.4,0,0,0,23.13-.09A26.66,26.66,0,0,1,59.33,84.19,39.34,39.34,0,0,1,33.38,94ZM67.57,69.75A31.78,31.78,0,0,1,61.06,69c-4.1-6-5.7-7.71-11.41-11.26a17.82,17.82,0,0,1,8.53-9.48,20.51,20.51,0,0,0,18.1,0A19.38,19.38,0,0,1,86.34,62.91,29.23,29.23,0,0,1,67.57,69.75Z"/><path class="cls-1" d="M93,11.47H85.23V3.69a3.49,3.49,0,0,0-7,0v7.78H70.47a3.49,3.49,0,0,0,0,7h7.78v7.77a3.49,3.49,0,0,0,7,0V18.45H93a3.49,3.49,0,0,0,0-7Z"/><path d="M67,15h0v0Z"/><path d="M77.56,18.45H70.47a3.46,3.46,0,0,1-3.27-2.34,3.46,3.46,0,0,0,3.27,2.34Z"/><path d="M73.62,28.69a6.59,6.59,0,1,1-9.27-7.87A8.46,8.46,0,0,1,62,15c0-.09,0-.18,0-.27A13.13,13.13,0,1,0,78.27,34,8.52,8.52,0,0,1,73.62,28.69Z"/></svg>