<svg id="レイヤー_1" data-name="レイヤー 1" xmlns="http://www.w3.org/2000/svg" viewBox="0 0 100 100"><title>camera</title><path d="M50,31.78A24.42,24.42,0,1,0,74.41,56.2,24.44,24.44,0,0,0,50,31.78Zm0,41A16.61,16.61,0,1,1,66.6,56.2,16.62,16.62,0,0,1,50,72.8Z"/><path d="M88.28,20.06H73.91a1.21,1.21,0,0,1-1.07-.65l-4-8.35,0-.07a9,9,0,0,0-8.08-5H39.53a9,9,0,0,0-8.08,5l0,.07-4,8.35a1.21,1.21,0,0,1-1.07.65H11.72A11.74,11.74,0,0,0,0,31.78V84.52A11.73,11.73,0,0,0,11.72,96.23H88.28A11.73,11.73,0,0,0,100,84.52V31.78A11.74,11.74,0,0,0,88.28,20.06Zm3.91,64.46a3.91,3.91,0,0,1-3.91,3.9H11.72a3.91,3.91,0,0,1-3.91-3.9V31.78a3.91,3.91,0,0,1,3.91-3.9H26.37a9,9,0,0,0,8.07-5l0-.06,4-8.36a1.21,1.21,0,0,1,1.08-.65H60.75a1.21,1.21,0,0,1,1.08.65l4,8.36a.21.21,0,0,0,0,.06,9,9,0,0,0,8.07,5H88.28a3.92,3.92,0,0,1,3.91,3.91Z"/><rect x="76.56" y="35.69" width="7.81" height="7.81"/></svg>