<svg id="レイヤー_1" data-name="レイヤー 1" xmlns="http://www.w3.org/2000/svg" viewBox="0 0 100 100"><title>friends</title><path d="M72.23,10.5a7.06,7.06,0,1,1-7.06,7.06,7.07,7.07,0,0,1,7.06-7.06m0-7A14.06,14.06,0,1,0,86.29,17.56,14.05,14.05,0,0,0,72.23,3.5Z"/><path d="M35.5,17.5a11,11,0,1,1-11,11,11,11,0,0,1,11-11m0-7a18,18,0,1,0,18,18,18,18,0,0,0-18-18Z"/><path d="M81.17,32.8a15,15,0,0,1-18.28,0A26.36,26.36,0,0,0,46.62,48.25,19.13,19.13,0,0,1,23.55,48,35.51,35.51,0,0,0,0,81.36a49.39,49.39,0,0,0,70.49.69c0-.18,0-.37,0-.55a35.8,35.8,0,0,0-1.73-11,35.22,35.22,0,0,0,3.52.19A38.48,38.48,0,0,0,99.55,59.38c0-.14,0-.28,0-.42A27.73,27.73,0,0,0,81.17,32.8ZM35.58,89.5a42.06,42.06,0,0,1-28.43-11A28.62,28.62,0,0,1,22.86,55.88a26.14,26.14,0,0,0,24.77,0A28.56,28.56,0,0,1,63.4,79.09,42.18,42.18,0,0,1,35.58,89.5ZM72.29,63.67a34.37,34.37,0,0,1-7-.8c-4.36-6.45-6.07-8.28-12.17-12.1a19.1,19.1,0,0,1,9.17-10.12,22,22,0,0,0,19.38,0A20.77,20.77,0,0,1,92.41,56.43,31.41,31.41,0,0,1,72.29,63.67Z"/></svg>