<svg id="レイヤー_1" data-name="レイヤー 1" xmlns="http://www.w3.org/2000/svg" viewBox="0 0 100 100"><defs><style>.cls-1{fill:#010002;}</style></defs><title>heart</title><path class="cls-1" d="M73.08,7.22v7c8.67,0,16.72,6.86,19.13,16.31,1.44,5.63,1.62,14.76-5.63,26.33-7.09,11.3-19.39,22-36.58,31.83C32.8,78.86,20.51,68.16,13.42,56.86,6.17,45.29,6.36,36.16,7.79,30.53c2.41-9.45,10.46-16.31,19.13-16.31,6.6,0,12.67,4,17.09,11.31l6,9.87,6-9.87c4.42-7.29,10.49-11.31,17.1-11.31v-7m0,0C64.8,7.22,56.24,11.61,50,21.9,43.76,11.6,35.2,7.22,26.92,7.22-.62,7.22-25,55.79,50,96.71,125,55.79,100.63,7.22,73.08,7.22Z"/></svg>