<svg id="レイヤー_1" data-name="レイヤー 1" xmlns="http://www.w3.org/2000/svg" viewBox="0 0 100 100"><defs><style>.cls-1{fill:#010002;}</style></defs><title>heart_plus</title><path class="cls-1" d="M96.51,15H88.73V7.19a3.49,3.49,0,0,0-7,0V15H74a3.49,3.49,0,0,0,0,7h7.78v7.77a3.49,3.49,0,0,0,7,0V22h7.78a3.49,3.49,0,0,0,0-7Z"/><path class="cls-1" d="M85.24,38.2a8.46,8.46,0,0,1-2.68-.44c.77,6.2-1.07,13-5.41,20-6.08,9.7-17,19.28-31.8,27.85C30.58,77,19.63,67.42,13.55,57.72,8.59,49.8,6.89,42,8.64,35.1c2-7.86,8.64-13.56,15.78-13.56,5.47,0,10.35,3.27,14.11,9.47l6.82,11.25L52.17,31c3.71-6.13,8.52-9.39,13.92-9.47a8.36,8.36,0,0,1,.19-6.61V13.56h0c-7.51,0-15.27,4-20.93,13.31-5.66-9.34-13.42-13.31-20.93-13.31-25,0-47.1,44.06,20.93,81.17C82.2,74.62,92.6,52.49,90.42,36.42A8.43,8.43,0,0,1,85.24,38.2Z"/><path class="cls-1" d="M67.05,13.58l-.77,0v1.36A9.32,9.32,0,0,1,67.05,13.58Z"/></svg>