<?xml version="1.0" encoding="utf-8"?>
<!-- Generator: Adobe Illustrator 22.1.0, SVG Export Plug-In . SVG Version: 6.00 Build 0)  -->
<svg version="1.1" id="レイヤー_1" xmlns="http://www.w3.org/2000/svg" xmlns:xlink="http://www.w3.org/1999/xlink" x="0px"
	 y="0px" viewBox="0 0 100 100" style="enable-background:new 0 0 100 100;" xml:space="preserve">
<style type="text/css">
	.st0{fill:#010002;}
</style>
<title>bell</title>
<path d="M26,30c2.8,0,5,2.2,5,5s-2.2,5-5,5s-5-2.2-5-5S23.2,30,26,30 M26,23c-6.6,0-12,5.4-12,12s5.4,12,12,12s12-5.4,12-12
	S32.6,23,26,23L26,23z"/>
<path d="M88.2,55.3L66.4,37.9L48.8,54.3l-9.4-7.5L13.6,71.5c-1.4,1.3-1.5,3.5-0.1,4.9c0.7,0.7,1.6,1.1,2.5,1.1s1.7-0.3,2.4-1
	l21.4-20.4l17,13.6c1.5,1.2,3.7,1,4.9-0.5s1-3.7-0.5-4.9l-6.9-5.5l12.5-11.7l17,13.6c0.6,0.5,1.4,0.8,2.2,0.8c1,0,2-0.4,2.7-1.3
	C89.9,58.7,89.7,56.5,88.2,55.3z"/>
<g>
	<path class="st0" d="M96.5,15h-7.8V7.2c0-1.9-1.6-3.5-3.5-3.5s-3.5,1.6-3.5,3.5V15H74c-1.9,0-3.5,1.6-3.5,3.5S72.1,22,74,22h7.8
		v7.8c0,1.9,1.6,3.5,3.5,3.5s3.5-1.6,3.5-3.5V22h7.8c1.9,0,3.5-1.6,3.5-3.5S98.4,15,96.5,15z"/>
</g>
<path d="M93,76.6c0,3.6-2.9,6.4-6.4,6.4H13.4C9.9,83,7,80.1,7,76.6V23.4c0-3.6,2.9-6.4,6.4-6.4h50.1c1.9,0,3.5-1.6,3.5-3.5l0,0
	c0-1.9-1.6-3.5-3.5-3.5H13.4C6,10,0,16,0,23.4v53.1C0,84,6,90,13.4,90h73.1C94,90,100,84,100,76.6V36.5c0-1.9-1.6-3.5-3.5-3.5l0,0
	c-1.9,0-3.5,1.6-3.5,3.5V76.6z"/>
</svg>
