<svg id="レイヤー_1" data-name="レイヤー 1" xmlns="http://www.w3.org/2000/svg" viewBox="0 0 100 100"><title>picture</title><path d="M90.06,17A2.94,2.94,0,0,1,93,19.94V80.06A2.94,2.94,0,0,1,90.06,83H9.94A2.94,2.94,0,0,1,7,80.06V19.94A2.94,2.94,0,0,1,9.94,17H90.06m0-7H9.94A9.94,9.94,0,0,0,0,19.94V80.06A9.94,9.94,0,0,0,9.94,90H90.06A9.94,9.94,0,0,0,100,80.06V19.94A9.94,9.94,0,0,0,90.06,10Z"/><path d="M26,30a5,5,0,1,1-5,5,5,5,0,0,1,5-5m0-7A12,12,0,1,0,38,35,12,12,0,0,0,26,23Z"/><path d="M88.19,55.27,66.44,37.87,48.78,54.35l-9.37-7.5L13.58,71.47a3.5,3.5,0,0,0,4.84,5.06L39.81,56.14l17,13.59a3.5,3.5,0,1,0,4.38-5.46l-6.88-5.5L66.79,47.12l17,13.61a3.5,3.5,0,1,0,4.38-5.46Z"/></svg>