<svg id="レイヤー_1" data-name="レイヤー 1" xmlns="http://www.w3.org/2000/svg" viewBox="0 0 100 100"><title>mail</title><path d="M90.06,19A2.94,2.94,0,0,1,93,21.94V78.06A2.94,2.94,0,0,1,90.06,81H9.94A2.94,2.94,0,0,1,7,78.06V21.94A2.94,2.94,0,0,1,9.94,19H90.06m0-7H9.94A9.94,9.94,0,0,0,0,21.94V78.06A9.94,9.94,0,0,0,9.94,88H90.06A9.94,9.94,0,0,0,100,78.06V21.94A9.94,9.94,0,0,0,90.06,12Z"/><path d="M86.2,68.37,64.26,49.12l21-18.49a3.5,3.5,0,0,0-4.62-5.26L50,52.37l-31.7-27a3.5,3.5,0,1,0-4.54,5.32L36,49.67,14.69,68.37a3.5,3.5,0,0,0,4.62,5.26L41.39,54.26,50,61.63,59,53.78,81.58,73.63a3.52,3.52,0,0,0,2.31.87,3.5,3.5,0,0,0,2.31-6.13Z"/></svg>