<svg id="レイヤー_1" data-name="レイヤー 1" xmlns="http://www.w3.org/2000/svg" viewBox="0 0 100 100"><title>user</title><path d="M100,49.5a50,50,0,1,0-50,50h.08A49.92,49.92,0,0,0,100,49.5ZM50,6.5A43,43,0,0,1,83.94,75.85,35.46,35.46,0,0,0,61.45,51a19.15,19.15,0,0,1-23.4,0A35.49,35.49,0,0,0,15.68,75.38,43,43,0,0,1,50,6.5ZM64.82,89.87l-.28.09c-.57.21-1.14.41-1.72.59l-.17,0c-.61.19-1.23.37-1.86.53l-.15,0c-.63.17-1.27.31-1.91.45l-.16,0c-.64.13-1.28.24-1.93.35l-.17,0c-.65.1-1.31.18-2,.25l-.16,0c-.68.07-1.38.12-2.07.16H52.2q-1.08.06-2.16.06l-.75,0q-.63,0-1.26,0c-.53,0-1.06-.06-1.59-.11l-.37,0A42,42,0,0,1,21.65,81.54,28.62,28.62,0,0,1,37.36,58.88a26.14,26.14,0,0,0,24.77,0A28.56,28.56,0,0,1,77.9,82.09,42.44,42.44,0,0,1,66,89.39C65.63,89.55,65.23,89.72,64.82,89.87Z"/><path d="M50,20.5a11,11,0,1,1-11,11,11,11,0,0,1,11-11m0-7a18,18,0,1,0,18,18,18,18,0,0,0-18-18Z"/></svg>