<svg id="レイヤー_1" data-name="レイヤー 1" xmlns="http://www.w3.org/2000/svg" viewBox="0 0 100 100"><title>home</title><path d="M50.29,3.58a4,4,0,0,0-2.37.78L2,38A4,4,0,0,0,.4,40.61a3.92,3.92,0,0,0,.73,3,4,4,0,0,0,3.24,1.65,4,4,0,0,0,2.37-.78L50.29,12.58,93.84,44.46a4,4,0,0,0,2.37.78,4,4,0,0,0,4-4.63A4,4,0,0,0,98.58,38L52.66,4.36a4,4,0,0,0-2.37-.78Z"/><path d="M84.56,46.19a4,4,0,0,0-4,4V87.6H64V67.84a13.74,13.74,0,0,0-27.48,0V87.6H20V50.14a4,4,0,0,0-7.9,0V91.55a4,4,0,0,0,3.95,4H40.5a4,4,0,0,0,3.93-3.64,2.63,2.63,0,0,0,0-.31V67.84a5.85,5.85,0,1,1,11.69,0V91.55c0,.13,0,.24,0,.35a4,4,0,0,0,3.93,3.6H84.56a4,4,0,0,0,4-4V50.14a4,4,0,0,0-4-4Z"/></svg>