<?xml version="1.0" encoding="utf-8"?>
<!-- Generator: Adobe Illustrator 22.1.0, SVG Export Plug-In . SVG Version: 6.00 Build 0)  -->
<svg version="1.1" id="レイヤー_1" xmlns="http://www.w3.org/2000/svg" xmlns:xlink="http://www.w3.org/1999/xlink" x="0px"
	 y="0px" viewBox="0 0 100 100" style="enable-background:new 0 0 100 100;" xml:space="preserve">
<title>zoom_in</title>
<path d="M50,0C22.4,0,0,22.4,0,50s22.4,50,50,50s50-22.4,50-50S77.6,0,50,0z M75.1,55.4H56.6v18.5c0,3-2.4,5.4-5.4,5.4
	c-3,0-5.4-2.4-5.4-5.4V55.4H27.3c-3,0-5.4-2.4-5.4-5.4s2.4-5.4,5.4-5.4h18.5V26.1c0-3,2.4-5.4,5.4-5.4c3,0,5.4,2.4,5.4,5.4v18.5
	h18.5c3,0,5.4,2.4,5.4,5.4S78.1,55.4,75.1,55.4z"/>
</svg>
