<?xml version="1.0" encoding="utf-8"?>
<!-- Generator: Adobe Illustrator 22.1.0, SVG Export Plug-In . SVG Version: 6.00 Build 0)  -->
<svg version="1.1" id="レイヤー_1" xmlns="http://www.w3.org/2000/svg" xmlns:xlink="http://www.w3.org/1999/xlink" x="0px"
	 y="0px" viewBox="0 0 100 100" style="enable-background:new 0 0 100 100;" xml:space="preserve">
<title>rotate_right</title>
<path d="M54.4,6c12.1,0.8,22.8,6.4,30.1,15.1l-0.1-10.3c-0.1-2.9,2.2-5.4,5.1-5.4c2.9-0.1,5.4,2.2,5.4,5.1c0,0.1,0,0.2,0,0.4v23.9
	c0.1,2.9-2.3,5.3-5.3,5.3H66.3c-2.9-0.1-5.2-2.6-5.1-5.4c0.1-2.8,2.3-5,5.1-5.1h10.9c-7.1-8.6-18.4-13.9-30.6-12.2
	C30.9,19.5,18.9,33,18.4,48.9c-0.5,18.7,14.4,34,33,34c8,0,15.7-3,21.6-8.3c1.9-1.7,4.9-1.7,6.9,0c2.6,2.2,2.7,6.2,0.1,8.4
	c-7.8,7-18,10.9-28.6,10.9c-24.6,0-44.5-20.2-44-44.9C7.9,24,29.5,4.3,54.4,6z"/>
</svg>
