<?xml version="1.0" encoding="utf-8"?>
<!-- Generator: Adobe Illustrator 22.1.0, SVG Export Plug-In . SVG Version: 6.00 Build 0)  -->
<svg version="1.1" id="レイヤー_1" xmlns="http://www.w3.org/2000/svg" xmlns:xlink="http://www.w3.org/1999/xlink" x="0px"
	 y="0px" viewBox="0 0 100 100" style="enable-background:new 0 0 100 100;" xml:space="preserve">
<title>menu</title>
<g>
	<path d="M95,25H5c-2.8,0-5-2.2-5-5v0c0-2.8,2.2-5,5-5h90c2.8,0,5,2.2,5,5v0C100,22.8,97.8,25,95,25z"/>
	<path d="M95,45H5c-2.8,0-5-2.2-5-5v0c0-2.8,2.2-5,5-5h90c2.8,0,5,2.2,5,5v0C100,42.8,97.8,45,95,45z"/>
	<path d="M95,65H5c-2.8,0-5-2.2-5-5v0c0-2.8,2.2-5,5-5h90c2.8,0,5,2.2,5,5v0C100,62.8,97.8,65,95,65z"/>
	<path d="M95,85H5c-2.8,0-5-2.2-5-5v0c0-2.8,2.2-5,5-5h90c2.8,0,5,2.2,5,5v0C100,82.8,97.8,85,95,85z"/>
</g>
</svg>
