<svg id="レイヤー_1" data-name="レイヤー 1" xmlns="http://www.w3.org/2000/svg" viewBox="0 0 100 100"><title>list</title><path d="M38.68,12.3a.52.52,0,0,1,.52.52V39.68a.52.52,0,0,1-.52.52H11.82a.52.52,0,0,1-.52-.52V12.82a.52.52,0,0,1,.52-.52H38.68m0-6.3H11.82A6.82,6.82,0,0,0,5,12.82V39.68a6.82,6.82,0,0,0,6.82,6.82H38.68a6.82,6.82,0,0,0,6.82-6.82V12.82A6.82,6.82,0,0,0,38.68,6Z"/><path d="M88.18,12.3a.52.52,0,0,1,.52.52V39.68a.52.52,0,0,1-.52.52H61.32a.52.52,0,0,1-.52-.52V12.82a.52.52,0,0,1,.52-.52H88.18m0-6.3H61.32a6.82,6.82,0,0,0-6.82,6.82V39.68a6.82,6.82,0,0,0,6.82,6.82H88.18A6.82,6.82,0,0,0,95,39.68V12.82A6.82,6.82,0,0,0,88.18,6Z"/><path d="M38.68,61.8a.52.52,0,0,1,.52.52V89.18a.52.52,0,0,1-.52.52H11.82a.52.52,0,0,1-.52-.52V62.32a.52.52,0,0,1,.52-.52H38.68m0-6.3H11.82A6.82,6.82,0,0,0,5,62.32V89.18A6.82,6.82,0,0,0,11.82,96H38.68a6.82,6.82,0,0,0,6.82-6.82V62.32a6.82,6.82,0,0,0-6.82-6.82Z"/><path d="M88.18,61.8a.52.52,0,0,1,.52.52V89.18a.52.52,0,0,1-.52.52H61.32a.52.52,0,0,1-.52-.52V62.32a.52.52,0,0,1,.52-.52H88.18m0-6.3H61.32a6.82,6.82,0,0,0-6.82,6.82V89.18A6.82,6.82,0,0,0,61.32,96H88.18A6.82,6.82,0,0,0,95,89.18V62.32a6.82,6.82,0,0,0-6.82-6.82Z"/></svg>