<?xml version="1.0" encoding="utf-8"?>
<!-- Generator: Adobe Illustrator 22.1.0, SVG Export Plug-In . SVG Version: 6.00 Build 0)  -->
<svg version="1.1" id="レイヤー_1" xmlns="http://www.w3.org/2000/svg" xmlns:xlink="http://www.w3.org/1999/xlink" x="0px"
	 y="0px" viewBox="0 0 88 100" style="enable-background:new 0 0 88 100;" xml:space="preserve">
<title>arrow_right</title>
<path d="M49.2,92.2l32.1-32.1c2.3-2.5,2.2-6.5-0.3-8.8c-2.4-2.2-6.1-2.2-8.5,0L50.8,73V10.9c-0.1-3.4-3-6.1-6.5-6
	c-3.2,0.1-5.8,2.7-6,6v61.7L16.7,50.9c-2.3-2.5-6.3-2.7-8.8-0.3c-2.5,2.3-2.7,6.3-0.3,8.8c0.1,0.1,0.2,0.2,0.3,0.3l32.5,32.5
	C42.8,94.7,46.8,94.7,49.2,92.2z"/>
</svg>
