<?xml version="1.0" encoding="utf-8"?>
<!-- Generator: Adobe Illustrator 22.1.0, SVG Export Plug-In . SVG Version: 6.00 Build 0)  -->
<svg version="1.1" id="レイヤー_1" xmlns="http://www.w3.org/2000/svg" xmlns:xlink="http://www.w3.org/1999/xlink" x="0px"
	 y="0px" viewBox="0 0 100 100" style="enable-background:new 0 0 100 100;" xml:space="preserve">
<title>arrow_right</title>
<path d="M7.7,54.3l32.1,32.1c2.5,2.3,6.5,2.2,8.8-0.3c2.2-2.4,2.2-6.1,0-8.5L26.9,55.9H89c3.4-0.1,6.1-3,6-6.5c-0.1-3.2-2.7-5.8-6-6
	H27.3L49,21.8c2.5-2.3,2.7-6.3,0.3-8.8c-2.3-2.5-6.3-2.7-8.8-0.3c-0.1,0.1-0.2,0.2-0.3,0.3L7.7,45.5C5.2,47.9,5.2,51.9,7.7,54.3z"/>
</svg>
