<?xml version="1.0" encoding="utf-8"?>
<!-- Generator: Adobe Illustrator 22.1.0, SVG Export Plug-In . SVG Version: 6.00 Build 0)  -->
<svg version="1.1" id="レイヤー_1" xmlns="http://www.w3.org/2000/svg" xmlns:xlink="http://www.w3.org/1999/xlink" x="0px"
	 y="0px" viewBox="0 0 100 100" style="enable-background:new 0 0 100 100;" xml:space="preserve">
<title>cycle</title>
<path d="M87.8,48.9c3.4,0,5.9-3,5.4-6.3C89.5,20.7,69.5,4.4,46.8,6C34.7,6.8,24,12.4,16.7,21.1l0.1-10.3c0.1-2.9-2.2-5.4-5.1-5.4
	c-2.9-0.1-5.4,2.2-5.4,5.1c0,0.1,0,0.2,0,0.4v23.9c-0.1,2.9,2.3,5.3,5.3,5.3h23.4c2.9-0.1,5.2-2.6,5.1-5.4c-0.1-2.8-2.3-5-5.1-5.1
	H24c7.1-8.6,18.4-13.9,30.6-12.2c14.2,2,25.3,13.2,27.7,27C82.8,47,85.1,48.9,87.8,48.9L87.8,48.9z"/>
<path d="M12.5,50.9c-3.4,0-5.9,3-5.4,6.3c3.7,21.9,23.7,38.2,46.4,36.6c12.1-0.8,22.8-6.4,30.1-15.1L83.7,89
	c-0.1,2.9,2.2,5.4,5.1,5.4c2.9,0.1,5.4-2.2,5.4-5.1c0-0.1,0-0.2,0-0.4V65.2c0.1-2.9-2.3-5.3-5.3-5.3H65.5c-2.9,0.1-5.2,2.6-5.1,5.4
	c0.1,2.8,2.3,5,5.1,5.1h10.9C69.3,79,58,84.4,45.8,82.6c-14.2-2-25.3-13.2-27.7-27C17.6,52.9,15.2,51,12.5,50.9L12.5,50.9z"/>
</svg>
