<?xml version="1.0" encoding="utf-8"?>
<!-- Generator: Adobe Illustrator 22.1.0, SVG Export Plug-In . SVG Version: 6.00 Build 0)  -->
<svg version="1.1" id="レイヤー_1" xmlns="http://www.w3.org/2000/svg" xmlns:xlink="http://www.w3.org/1999/xlink" x="0px"
	 y="0px" viewBox="0 0 100 100" style="enable-background:new 0 0 100 100;" xml:space="preserve">
<title>friends_check</title>
<path d="M98.7,3.3C97.9,2.5,96.8,2,95.6,2h0c-1.2,0-2.3,0.5-3.1,1.3L81,15.2l-6.5-6.7c-0.8-0.9-1.9-1.3-3.1-1.3c0,0,0,0,0,0
	c-1.2,0-2.3,0.5-3.1,1.3c-1.7,1.7-1.7,4.6,0,6.3l9.6,9.9c0.8,0.8,1.9,1.3,3.1,1.3c1.2,0,2.3-0.5,3.1-1.3L98.7,9.7
	C100.4,7.9,100.4,5.1,98.7,3.3z"/>
<path d="M36.5,19.5c6.1,0,11,4.9,11,11s-4.9,11-11,11s-11-4.9-11-11S30.4,19.5,36.5,19.5 M36.5,12.5c-9.9,0-18,8.1-18,18
	s8.1,18,18,18s18-8.1,18-18S46.4,12.5,36.5,12.5L36.5,12.5z"/>
<path d="M82.2,34.8c-2.5,1.9-5.7,3.1-9.1,3.1s-6.6-1.2-9.1-3.1c-7.3,2.6-13.2,7.7-16.3,15.4c-3.2,2.3-7.1,3.8-11.4,3.8
	c-4.4,0-8.4-1.5-11.7-4C10.9,54.9,1.1,67.9,1,83.4c9,9.3,21.6,15.1,35.6,15.1c13.6,0,25.9-5.5,34.9-14.5c0-0.2,0-0.4,0-0.5
	c0-3.8-0.6-7.5-1.7-11c1.2,0.1,2.4,0.2,3.5,0.2c10.6,0,20.3-4.3,27.3-11.3c0-0.1,0-0.3,0-0.4C100.6,48.9,92.9,38.6,82.2,34.8z
	 M36.6,91.5c-10.6,0-20.6-3.9-28.4-11c1-9.8,7-18.4,15.7-22.7c3.8,2,8,3.1,12.4,3.1c4.4,0,8.6-1.1,12.4-3.1
	c8.9,4.4,14.9,13.2,15.8,23.2C56.7,87.8,46.9,91.5,36.6,91.5z M73.3,65.7c-2.1,0-4.6-0.3-7-0.8c-4.4-6.5-6.1-8.3-12.2-12.1
	c2.1-5.2,5.7-8.3,9.2-10.1c3,1.5,6.3,2.3,9.7,2.3c3.4,0,6.7-0.8,9.7-2.2c5.9,3.2,9.9,9.1,10.7,15.8C87.7,63.1,80.7,65.7,73.3,65.7z"
	/>
<g>
	<path d="M79.8,30.1c-1.8,0-3.5-0.7-4.8-2l-1-1c-0.5,0.1-1.1,0.2-1.6,0.2c-3.7,0-6.7-3-6.7-6.7c0-0.6,0.1-1.1,0.2-1.6l-0.8-0.8
		c-1.3-1.3-2-3-2-4.8c0-1.1,0.3-2.2,0.8-3.2c-3,2.4-4.9,6.2-4.9,10.3c0,7.4,6,13.3,13.3,13.3c3.9,0,7.4-1.7,9.9-4.4
		C81.6,29.9,80.7,30.1,79.8,30.1z"/>
</g>
</svg>
