<svg id="レイヤー_1" data-name="レイヤー 1" xmlns="http://www.w3.org/2000/svg" viewBox="0 0 100 100"><title>memory</title><path d="M98.7,27.6a15,15,0,0,0-3.13-4.94L77.34,4.43A15,15,0,0,0,72.4,1.3,15,15,0,0,0,66.67,0H6.25A6,6,0,0,0,1.83,1.82,6,6,0,0,0,0,6.25v87.5a6,6,0,0,0,1.83,4.43A6,6,0,0,0,6.25,100h87.5A6.21,6.21,0,0,0,100,93.75V33.33A15,15,0,0,0,98.7,27.6Zm-57-17.18a2.12,2.12,0,0,1,2.08-2.09h12.5a2.12,2.12,0,0,1,2.09,2.09V31.25a2.12,2.12,0,0,1-2.09,2.08H43.75a2,2,0,0,1-1.46-.62,2,2,0,0,1-.62-1.46V10.42ZM75,91.67H25v-25H75Zm16.67,0H83.33V64.58a6.23,6.23,0,0,0-6.24-6.25H22.92a6.23,6.23,0,0,0-6.25,6.25V91.67H8.34V8.33h8.33V35.42a6.23,6.23,0,0,0,6.25,6.25h37.5a6.23,6.23,0,0,0,6.25-6.25V8.33A7.09,7.09,0,0,1,69.21,9a7.17,7.17,0,0,1,2.21,1.3l18.3,18.3A6.91,6.91,0,0,1,91,30.83a7.27,7.27,0,0,1,.65,2.5V91.67Z"/></svg>