<?xml version="1.0" standalone="no"?>
<!DOCTYPE svg PUBLIC "-//W3C//DTD SVG 1.1//EN" "http://www.w3.org/Graphics/SVG/1.1/DTD/svg11.dtd" >
<svg xmlns="http://www.w3.org/2000/svg">
<defs>
  <font id="iconfont" horiz-adv-x="1000.0164655129832">
    <font-face font-family="iconfont"
      units-per-em="1000" ascent="1000"
      descent="0" />
    <missing-glyph horiz-adv-x="0" />
    <glyph glyph-name="arrow_left"
      unicode="&#xEA01;"
      horiz-adv-x="1000" d="M77 457L398.0000000000001 136C423.0000000000001 113 463.0000000000001 113.9999999999999 486.0000000000001 138.9999999999999C508.0000000000001 163 508.0000000000001 199.9999999999999 486.0000000000001 223.9999999999999L269 441H890C924 442 951 471 950 506C949 538 923 564 890 566H273L490 782C515 805 517 845 493 870C470 895 430 897 405 873C404 872 403 871 402 870L77 545C52 521 52 481 77 457z" />
    <glyph glyph-name="arrow_right"
      unicode="&#xEA02;"
      horiz-adv-x="1000" d="M931.8 552.3L610.6 873.4A62.300000000000004 62.300000000000004 0 0 1 522.5 785.4L739.4 568.5H118.3A62.300000000000004 62.300000000000004 0 0 1 118.3 444H735.4000000000001L518.5 227.0999999999999A62.300000000000004 62.300000000000004 0 1 1 606.6 139.0999999999999L931.8 464.2A62.300000000000004 62.300000000000004 0 0 1 931.8 552.3z" />
    <glyph glyph-name="bell"
      unicode="&#xEA03;"
      horiz-adv-x="1000" d="M400 110H600V103.7000000000001A93.8 93.8 0 0 0 506.3 10H493.7A93.8 93.8 0 0 0 400 103.7000000000001zM914.1 214.2000000000001L820 308.3V575A325.09999999999997 325.09999999999997 0 0 1 570 891.2V925A74.99999999999999 74.99999999999999 0 0 1 420 925V891.2A325.09999999999997 325.09999999999997 0 0 1 170 575V299.2000000000001L85 214.2000000000001A37.6 37.6 0 0 1 111.6 150H887.5A37.6 37.6 0 0 1 914.1 214.2000000000001zM750 220H240V575A254.99999999999997 254.99999999999997 0 0 0 750 575z" />
    <glyph glyph-name="camera"
      unicode="&#xEA04;"
      horiz-adv-x="1000" d="M500 682.2A244.20000000000005 244.20000000000005 0 1 1 744.0999999999999 438A244.4 244.4 0 0 1 500 682.2zM500 272.2000000000001A166.09999999999997 166.09999999999997 0 1 0 666 438A166.20000000000002 166.20000000000002 0 0 0 500 272zM882.8 799.4H739.0999999999999A12.099999999999998 12.099999999999998 0 0 0 728.4000000000001 805.9L688.4000000000001 889.4L688.4000000000001 890.1A90 90 0 0 1 607.6 940.1H395.3A90 90 0 0 1 314.5 890.1L314.5 889.4L274.5 805.9A12.099999999999998 12.099999999999998 0 0 0 263.8 799.4H117.2A117.4 117.4 0 0 1 0 682.2V154.8000000000001A117.3 117.3 0 0 1 117.2 37.6999999999999H882.8A117.3 117.3 0 0 1 1000 154.8000000000001V682.2A117.4 117.4 0 0 1 882.8 799.4zM921.9 154.8000000000001A39.1 39.1 0 0 0 882.8 115.8H117.2A39.1 39.1 0 0 0 78.1 154.8000000000001V682.2A39.1 39.1 0 0 0 117.2 721.2H263.7A90 90 0 0 1 344.4 771.2L344.4 771.8L384.4 855.4A12.099999999999998 12.099999999999998 0 0 0 395.2 861.9H607.5A12.099999999999998 12.099999999999998 0 0 0 618.3 855.4L658.3 771.8A2.1 2.1 0 0 1 658.3 771.2A90 90 0 0 1 739 721.2H882.8A39.2 39.2 0 0 0 921.9 682.0999999999999zM765.6 643.1H843.7V565H765.6V643.1z" />
    <glyph glyph-name="check"
      unicode="&#xEA05;"
      horiz-adv-x="1000" d="M14.5 470.8A36.9 36.9 0 0 0 14.5 524.3L68 577.9A37 37 0 0 0 121.6 577.9L125.4 574L335.4 348.4000000000001A18.4 18.4 0 0 1 362.2 348.4000000000001L875 880H878.8A37 37 0 0 0 932.4 880L985.8999999999997 826.5A37 37 0 0 0 985.8999999999997 772.9H985.8999999999997L374 138A37.2 37.2 0 0 0 320.4 138L22.1 459.3z" />
    <glyph glyph-name="comment"
      unicode="&#xEA06;"
      horiz-adv-x="1000" d="M505 15A485.20000000000005 485.20000000000005 0 0 0 272.1 75L89.3 31.1A40 40 0 0 0 41.3 80L87.1 254A484.9000000000001 484.9000000000001 0 1 0 505 15zM278.2 157.0999999999999A40 40 0 0 0 298.2 151.4999999999999A405.49999999999994 405.49999999999994 0 1 1 163.4 281.4999999999999A40 40 0 0 0 168.4 249.8L135.7 124.4L269 156.1A40.49999999999999 40.49999999999999 0 0 0 278.2 157.0999999999999zM250 500A70.00000000000001 70.00000000000001 0 0 1 390 500A70.00000000000001 70.00000000000001 0 0 1 250 500M450 500A70.00000000000001 70.00000000000001 0 0 1 590 500A70.00000000000001 70.00000000000001 0 0 1 450 500M650 500A70.00000000000001 70.00000000000001 0 0 1 790 500A70.00000000000001 70.00000000000001 0 0 1 650 500" />
    <glyph glyph-name="cross"
      unicode="&#xEA07;"
      horiz-adv-x="1000" d="M591.9 500L866 774A65.1 65.1 0 1 1 773.9999999999999 866L500 591.9L226 866A65.1 65.1 0 0 1 134 774L408.1 500L134 226A65.1 65.1 0 0 1 226 133.9999999999999L500 408.1L774 134A65.1 65.1 0 0 1 866.0000000000001 226.0000000000001z" />
    <glyph glyph-name="cycle"
      unicode="&#xEA08;"
      horiz-adv-x="1000" d="M942.6 510A442.70000000000005 442.70000000000005 0 0 1 544.3 939C379.2000000000001 955.5 227.1 882.3 141.7 752.7L87.2 818.9L65.1 600H267.3L211 668.3C277.2000000000001 772.3 401 842.8 533.2 829.5999999999999A332.1 332.1 0 0 0 831.9 510.6zM62.6 492.6A442.6 442.6 0 0 1 460.8 63.6C626 47 778 120 863.5 250L917.8999999999997 183.7000000000001L940 402.5L737.8 402.5L794 334C728 230 604.0999999999999 160 471.9 173A332.1 332.1 0 0 0 173.3 491.9z" />
    <glyph glyph-name="edit"
      unicode="&#xEA09;"
      horiz-adv-x="1000" d="M1.1 249.3000000000001L0 44.2A44.599999999999994 44.599999999999994 0 0 1 12.6 12.6A42.19999999999999 42.19999999999999 0 0 1 43.1 0L247.2 1.1A42.400000000000006 42.400000000000006 0 0 1 277.7 13.7L982.3 718.3A44.400000000000006 44.400000000000006 0 0 1 982.3 780.4L780 984.4A44.400000000000006 44.400000000000006 0 0 1 717.9000000000001 984.4L577.4 842.4L13.7 280A46.699999999999996 46.699999999999996 0 0 1 1.1 249.3000000000001zM750 891.9L891.9 750L811.9 670L670 811.9zM88.3 230L608.3 750L750 607.9L230 89.4L87 88.3z" />
    <glyph glyph-name="fb"
      unicode="&#xEA0A;"
      horiz-adv-x="1000.0164655129832" d="M944.758203941844 999.983534487017H55.192399519207C24.7312005005516 999.983534487017 0 975.3017305254147 0 944.79113496781V55.2253305451731C0 24.7147349875685 24.7312005005516 -1e-13 55.192399519207 -1e-13H534.1083101444025V387.2523998485174H403.8002403964895V538.1917573642008H534.1083101444025V649.4986251296659C534.1083101444025 778.6376434557819 612.9616518202624 848.9947804323845 728.1873116756952 848.9947804323845C783.4291077338514 848.9947804323845 830.8003885861064 844.8619366736372 844.6149539788912 843.067195758484V708.0829203233827L764.6913539591326 708.0499892974167C702.0400770586008 708.0499892974167 689.9543905290369 678.2638763110665 689.9543905290369 634.5808703670164V538.24115390315H839.4283173892283L819.8837534783397 387.3182619004497H689.9379250160539V0.0493965389493H944.7417384288608C975.2358684734822 0.0493965389493 999.983534487017 24.797062552484 999.983534487017 55.2253305451733V944.8240659937762C999.967068974034 975.3017305254147 975.2523339864654 999.983534487017 944.758203941844 999.983534487017z" />
    <glyph glyph-name="friends"
      unicode="&#xEA0B;"
      horiz-adv-x="1000" d="M722.3000000000001 895A70.6 70.6 0 1 0 651.7 824.4A70.70000000000002 70.70000000000002 0 0 0 722.3000000000001 895M722.3000000000001 965A140.6 140.6 0 1 1 862.9000000000001 824.4A140.5 140.5 0 0 1 722.3000000000001 965zM355 825A110 110 0 1 0 245 715A110 110 0 0 0 355 825M355 895A180 180 0 1 1 535 715A180 180 0 0 1 355 895zM811.7 672A149.99999999999997 149.99999999999997 0 0 0 628.9 672A263.59999999999997 263.59999999999997 0 0 1 466.2 517.5A191.29999999999998 191.29999999999998 0 0 0 235.5 520A355.09999999999997 355.09999999999997 0 0 1 0 186.4A493.9 493.9 0 0 1 704.9 179.5C704.9 181.3000000000001 704.9 183.2000000000001 704.9 185A357.99999999999994 357.99999999999994 0 0 1 687.5999999999999 295A352.2 352.2 0 0 1 722.7999999999998 293.1A384.79999999999995 384.79999999999995 0 0 1 995.5 406.2C995.5 407.6 995.5 409 995.5 410.4A277.29999999999995 277.29999999999995 0 0 1 811.7 672zM355.8 105A420.59999999999997 420.59999999999997 0 0 0 71.5 215A286.2 286.2 0 0 0 228.6 441.2A261.40000000000003 261.40000000000003 0 0 1 476.3 441.2A285.6 285.6 0 0 0 634 209.0999999999999A421.8 421.8 0 0 0 355.8 105zM722.9000000000001 363.3A343.7 343.7 0 0 0 652.9000000000001 371.3C609.3000000000001 435.8 592.2 454.0999999999999 531.2 492.3A191.00000000000003 191.00000000000003 0 0 0 622.9000000000001 593.5A220 220 0 0 1 816.7 593.5A207.7 207.7 0 0 0 924.1 435.7000000000001A314.1 314.1 0 0 0 722.9000000000001 363.3z" />
    <glyph glyph-name="friends_check"
      unicode="&#xEA0C;"
      horiz-adv-x="1000" d="M987 967C979 975 968 980 956 980H956C943.9999999999998 980 933 975 925 967L810 848L745 915C737 924 726 928 714 928C714 928 714 928 714 928C702 928 691.0000000000001 923 683.0000000000001 915C666.0000000000001 898 666.0000000000001 869 683.0000000000001 852L779 753C787 745 798.0000000000001 740 810 740C822 740 833 745 841 753L987 903C1004 921 1004 949 987 967zM365 805C426 805 475 756 475 695S426 585 365 585S255 634 255 695S304 805 365 805M365 875C266 875 185 794 185 695S266 515 365 515S545 596 545 695S464 875 365 875L365 875zM822 652C797 633 765 621 731.0000000000001 621S665.0000000000001 633 640.0000000000001 652C567.0000000000002 626 508.0000000000001 575 477.0000000000002 498.0000000000001C445.0000000000001 475.0000000000001 406.0000000000002 460.0000000000001 363.0000000000002 460.0000000000001C319.0000000000003 460.0000000000001 279.0000000000003 475.0000000000001 246.0000000000002 500.0000000000001C109 451 11 321 10 166C100 73 226 15 366 15C502 15 625 70 715 160C715 162 715 164 715 165C715 203 709 240 698 275C710 274 722 273 733 273C838.9999999999999 273 936 316 1006 386C1006 387 1006 388.9999999999999 1006 389.9999999999999C1006 511 929 614 822 652zM366 85C260 85 160 124 82 195C92 293 152 379 239.0000000000001 422C277 402 319 391 363.0000000000001 391C407 391 449.0000000000001 402 487 422C576 378 636 290 645 190C567 122 469 85 366 85zM733 343C712 343 687 346 663 351C619 416 602 433.9999999999999 541 472C562 524 598 555 633 573C663 558 696 550 730 550C764 550 797 558 827 572C886.0000000000001 540 926.0000000000002 481 934 414C877 369 807 343 733 343zM798 699C780 699 763 706 750 719L740 729C735 728 729 727 724 727C687 727 657 757 657 794C657 800 658 805 659 810L651.0000000000001 818C638.0000000000001 831 631.0000000000001 848 631.0000000000001 866C631.0000000000001 877 634 888 639 898C609 874 590.0000000000001 836 590.0000000000001 795C590.0000000000001 721 650 662 723.0000000000001 662C762.0000000000002 662 797.0000000000002 679 822.0000000000002 706C816 701 807 699 798 699z" />
    <glyph glyph-name="friends_plus"
      unicode="&#xEA0D;"
      horiz-adv-x="1000" d="M330 732.4A102.79999999999998 102.79999999999998 0 1 0 228.1 629.2A103 103 0 0 0 330 732.4M330 797.8A168.2 168.2 0 1 1 498.9 630A168.2 168.2 0 0 1 330 797.8zM757.6 591.2A140.00000000000003 140.00000000000003 0 0 0 586.8 590A246.5 246.5 0 0 1 435.4 445.6A178.50000000000003 178.50000000000003 0 0 0 220 447A331.6 331.6 0 0 1 1.2 134.5999999999999A461.3 461.3 0 0 1 660 130.6999999999999C660 132.5 660 134.0999999999999 660 135.8999999999999A335.90000000000003 335.90000000000003 0 0 1 643.4000000000001 238.7A306.9 306.9 0 0 1 676.3000000000001 237.0999999999999A360 360 0 0 1 930 343.5C930 344.8 930 346.2 930 347.5A258.9 258.9 0 0 1 757.6 591.2zM333.8 60A392.90000000000003 392.90000000000003 0 0 0 67.9 161.2000000000001A266.9 266.9 0 0 0 213.8 373.4000000000001A243.99999999999997 243.99999999999997 0 0 1 445.1 374.3000000000001A266.59999999999997 266.59999999999997 0 0 0 593.3 158.1A393.40000000000003 393.40000000000003 0 0 0 333.8 60zM675.6999999999999 302.5A317.8 317.8 0 0 0 610.6 310C569.6 370 553.6 387.1 496.5000000000001 422.6A178.20000000000005 178.20000000000005 0 0 0 581.8000000000001 517.4A205.10000000000002 205.10000000000002 0 0 1 762.8 517.4A193.79999999999998 193.79999999999998 0 0 0 863.4000000000001 370.9000000000001A292.3 292.3 0 0 0 675.6999999999999 302.5zM930 885.3H852.3000000000001V963.1A34.9 34.9 0 0 1 782.3000000000001 963.1V885.3H704.7A34.9 34.9 0 0 1 704.7 815.3H782.5V737.6A34.9 34.9 0 0 1 852.5 737.6V815.5H930A34.9 34.9 0 0 1 930 885.5zM670 850H670V850zM775.6 815.5H704.7A34.6 34.6 0 0 0 672 838.9A34.6 34.6 0 0 1 704.7 815.5zM736.2 713.0999999999999A65.89999999999999 65.89999999999999 0 1 0 643.5000000000001 791.8A84.60000000000001 84.60000000000001 0 0 0 620 850C620 850.9 620 851.8 620 852.7A131.3 131.3 0 1 1 782.6999999999999 660A85.19999999999999 85.19999999999999 0 0 0 736.2 713.0999999999999z" />
    <glyph glyph-name="heart"
      unicode="&#xEA0E;"
      horiz-adv-x="1000" d="M730.8 927.8V857.8C817.5 857.8 898 789.2 922.1 694.7C936.4999999999998 638.4000000000001 938.3 547.1 865.8 431.4C794.9 318.4000000000001 671.9 211.4 500 113.1C328 211.4 205.1 318.4000000000001 134.2 431.4C61.7 547.1 63.6 638.4000000000001 77.9 694.7C102 789.2 182.5 857.8 269.2 857.8C335.2 857.8 395.9 817.8 440.1 744.7L500.1 646L560.1 744.7C604.3 817.5999999999999 665 857.8 731.1 857.8V927.8M731.1 927.8C648 927.8 562.4 883.9 500 781C437.6 884 352 927.8 269.2000000000001 927.8C-6.2 927.8 -250 442.1 500 32.9000000000001C1250 442.1 1006.3 927.8 730.8 927.8z" />
    <glyph glyph-name="heart_plus"
      unicode="&#xEA0F;"
      horiz-adv-x="1000" d="M965.1 850H887.3000000000001V928.1A34.9 34.9 0 0 1 817.3000000000001 928.1V850H740A34.9 34.9 0 0 1 740 780H817.8V702.3A34.9 34.9 0 0 1 887.8 702.3V780H965.6A34.9 34.9 0 0 1 965.6 850zM852.4 618A84.60000000000001 84.60000000000001 0 0 0 825.5999999999999 622.4C833.2999999999998 560.3999999999999 814.9 492.4 771.4999999999999 422.4C710.6999999999999 325.3999999999999 601.4999999999999 229.5999999999999 453.4999999999999 143.8999999999999C305.8 230 196.3 325.8 135.5 422.8C85.9 502 68.9 580 86.4 649C106.4 727.5999999999999 172.8 784.6 244.2 784.6C298.9 784.6 347.7000000000001 751.9 385.3 689.9000000000001L453.5 577.4000000000001L521.7 690C558.8000000000001 751.3 606.9 783.9 660.9000000000001 784.7A83.6 83.6 0 0 0 662.8 850.8V864.4H662.8C587.7 864.4 510.1 824.4 453.5 731.3C396.9 824.7 319.3 864.4 244.2 864.4C-5.8 864.4 -226.8 423.8 453.5 52.6999999999999C822 253.8 926 475.1 904.2 635.8A84.3 84.3 0 0 0 852.4 618zM670.5 864.2L662.8 864.2V850.6A93.2 93.2 0 0 0 670.5 864.2z" />
    <glyph glyph-name="home"
      unicode="&#xEA10;"
      horiz-adv-x="1000" d="M502.9 964.2A40 40 0 0 1 479.2 956.4L20 620A40 40 0 0 1 4 593.9A39.2 39.2 0 0 1 11.3 563.9A40 40 0 0 1 43.7 547.4000000000001A40 40 0 0 1 67.4 555.2L502.9 874.2L938.4 555.4A40 40 0 0 1 962.1000000000003 547.5999999999999A40 40 0 0 1 1002.1000000000003 593.9A40 40 0 0 1 985.8 620L526.5999999999999 956.4A40 40 0 0 1 502.9 964.2zM845.6 538.1A40 40 0 0 1 805.6 498.1V124H640V321.5999999999999A137.4 137.4 0 0 1 365.2 321.5999999999999V124H200V498.6A40 40 0 0 1 121 498.6V84.5A40 40 0 0 1 160.5 44.5H405A40 40 0 0 1 444.3 80.9000000000001A26.3 26.3 0 0 1 444.3 84V321.5999999999999A58.49999999999999 58.49999999999999 0 1 0 561.1999999999999 321.5999999999999V84.5C561.1999999999999 83.2000000000001 561.1999999999999 82.1000000000001 561.1999999999999 81.0000000000001A40 40 0 0 1 600.5 45.0000000000001H845.6A40 40 0 0 1 885.6 85.0000000000001V498.6A40 40 0 0 1 845.6 538.6z" />
    <glyph glyph-name="list"
      unicode="&#xEA11;"
      horiz-adv-x="1000" d="M386.8 877A5.2 5.2 0 0 0 392 871.8V603.2A5.2 5.2 0 0 0 386.8 598H118.2A5.2 5.2 0 0 0 113 603.2V871.8A5.2 5.2 0 0 0 118.2 877H386.8M386.8 940H118.2A68.2 68.2 0 0 1 50 871.8V603.2A68.2 68.2 0 0 1 118.2 535H386.8A68.2 68.2 0 0 1 455 603.2V871.8A68.2 68.2 0 0 1 386.8 940zM881.8000000000001 877A5.2 5.2 0 0 0 887 871.8V603.2A5.2 5.2 0 0 0 881.8000000000001 598H613.2A5.2 5.2 0 0 0 608 603.2V871.8A5.2 5.2 0 0 0 613.2 877H881.8000000000001M881.8000000000001 940H613.2A68.2 68.2 0 0 1 545 871.8V603.2A68.2 68.2 0 0 1 613.2 535H881.8000000000001A68.2 68.2 0 0 1 950 603.2V871.8A68.2 68.2 0 0 1 881.8000000000001 940zM386.8 382A5.2 5.2 0 0 0 392 376.8V108.1999999999999A5.2 5.2 0 0 0 386.8 103H118.2A5.2 5.2 0 0 0 113 108.1999999999999V376.8A5.2 5.2 0 0 0 118.2 382H386.8M386.8 445H118.2A68.2 68.2 0 0 1 50 376.8V108.1999999999999A68.2 68.2 0 0 1 118.2 40H386.8A68.2 68.2 0 0 1 455 108.1999999999999V376.8A68.2 68.2 0 0 1 386.8 445zM881.8000000000001 382A5.2 5.2 0 0 0 887 376.8V108.1999999999999A5.2 5.2 0 0 0 881.8000000000001 103H613.2A5.2 5.2 0 0 0 608 108.1999999999999V376.8A5.2 5.2 0 0 0 613.2 382H881.8000000000001M881.8000000000001 445H613.2A68.2 68.2 0 0 1 545 376.8V108.1999999999999A68.2 68.2 0 0 1 613.2 40H881.8000000000001A68.2 68.2 0 0 1 950 108.1999999999999V376.8A68.2 68.2 0 0 1 881.8000000000001 445z" />
    <glyph glyph-name="mail"
      unicode="&#xEA12;"
      horiz-adv-x="1000" d="M900.6 810A29.4 29.4 0 0 0 930 780.6V219.4A29.4 29.4 0 0 0 900.6 190H99.4A29.4 29.4 0 0 0 70 219.4V780.6A29.4 29.4 0 0 0 99.4 810H900.6M900.6 880H99.4A99.39999999999999 99.39999999999999 0 0 1 0 780.6V219.4A99.39999999999999 99.39999999999999 0 0 1 99.4 120H900.6A99.39999999999999 99.39999999999999 0 0 1 1000 219.4V780.6A99.39999999999999 99.39999999999999 0 0 1 900.6 880zM862 316.3L642.6 508.8L852.6 693.7A35.00000000000001 35.00000000000001 0 0 1 806.4 746.3L500 476.3000000000001L183 746.3A35.00000000000001 35.00000000000001 0 1 1 137.6 693.1L360 503.3L146.9 316.3A35.00000000000001 35.00000000000001 0 0 1 193.1 263.7L413.9 457.4L500 383.7L590 462.2L815.8 263.7000000000001A35.199999999999996 35.199999999999996 0 0 1 838.9 255A35.00000000000001 35.00000000000001 0 0 1 862 316.3z" />
    <glyph glyph-name="memory"
      unicode="&#xEA13;"
      horiz-adv-x="1000" d="M987 724A149.99999999999997 149.99999999999997 0 0 1 955.7 773.4L773.4000000000001 955.7A149.99999999999997 149.99999999999997 0 0 1 724 987A149.99999999999997 149.99999999999997 0 0 1 666.7 1000H62.5A60 60 0 0 1 18.3 981.8A60 60 0 0 1 0 937.5V62.5A60 60 0 0 1 18.3 18.1999999999999A60 60 0 0 1 62.5 0H937.5A62.1 62.1 0 0 1 1000 62.5V666.7A149.99999999999997 149.99999999999997 0 0 1 987 724zM417 895.8A21.200000000000003 21.200000000000003 0 0 0 437.8 916.7H562.8A21.200000000000003 21.200000000000003 0 0 0 583.7 895.8V687.5A21.200000000000003 21.200000000000003 0 0 0 562.8 666.7H437.5A20 20 0 0 0 422.9 672.9A20 20 0 0 0 416.7000000000001 687.5V895.8zM750 83.3H250V333.3H750zM916.7 83.3H833.3V354.2000000000001A62.300000000000004 62.300000000000004 0 0 1 770.9000000000001 416.7000000000001H229.2A62.300000000000004 62.300000000000004 0 0 1 166.7 354.2000000000001V83.3H83.4V916.7H166.7V645.8A62.300000000000004 62.300000000000004 0 0 1 229.2 583.3H604.2A62.300000000000004 62.300000000000004 0 0 1 666.7 645.8V916.7A70.9 70.9 0 0 0 692.0999999999999 910A71.69999999999999 71.69999999999999 0 0 0 714.1999999999998 897L897.1999999999998 714A69.10000000000001 69.10000000000001 0 0 0 910 691.7A72.69999999999999 72.69999999999999 0 0 0 916.5 666.7V83.3z" />
    <glyph glyph-name="menu"
      unicode="&#xEA14;"
      horiz-adv-x="850" d="M345 820A80 80 0 0 1 505 820A80 80 0 0 1 345 820M345 500A80 80 0 0 1 505 500A80 80 0 0 1 345 500M345 180A80 80 0 0 1 505 180A80 80 0 0 1 345 180" />
    <glyph glyph-name="picture"
      unicode="&#xEA15;"
      horiz-adv-x="1000" d="M900.6 830A29.4 29.4 0 0 0 930 800.6V199.4A29.4 29.4 0 0 0 900.6 170H99.4A29.4 29.4 0 0 0 70 199.4V800.6A29.4 29.4 0 0 0 99.4 830H900.6M900.6 900H99.4A99.39999999999999 99.39999999999999 0 0 1 0 800.6V199.4A99.39999999999999 99.39999999999999 0 0 1 99.4 100H900.6A99.39999999999999 99.39999999999999 0 0 1 1000 199.4V800.6A99.39999999999999 99.39999999999999 0 0 1 900.6 900zM260 700A50 50 0 1 0 210 650A50 50 0 0 0 260 700M260 770A120 120 0 1 1 380 650A120 120 0 0 1 260 770zM881.9 447.3L664.4 621.3L487.8 456.5L394.1 531.5L135.8 285.3A35.00000000000001 35.00000000000001 0 0 1 184.2 234.7000000000001L398.1 438.6L568.1 302.7A35.00000000000001 35.00000000000001 0 1 1 611.9000000000001 357.3L543.1 412.3L667.9000000000001 528.8L837.9000000000001 392.7000000000001A35.00000000000001 35.00000000000001 0 1 1 881.7 447.3000000000001z" />
    <glyph glyph-name="picture_plus"
      unicode="&#xEA16;"
      horiz-adv-x="1000" d="M260 700C288 700 310 678 310 650S288 600 260 600S210 622 210 650S232 700 260 700M260 770C194 770 140 716 140 650S194 530 260 530S380 584 380 650S326 770 260 770L260 770zM882 447L664 621L488 457L394 532L136 285C122 272 121 250 135 236C142 228.9999999999999 151 225 160 225S177 228 184 235L398 439L568 303C583 291 605 293 617 308S627 345 612 357L543 412L668 529L838 393C843.9999999999999 388 852 385.0000000000001 860 385.0000000000001C870 385.0000000000001 880 389 887 398C899 413 897 435 882 447zM965 850H887V928C887 947 871.0000000000001 963 852 963S817 947 817 928V850H740C721 850 705 834 705 815S721 780 740 780H818V702C818 683 833.9999999999999 667 853 667S888 683 888 702V780H966C985 780 1001 796 1001 815S984 850 965 850zM930 234C930 198.0000000000001 901 170 866 170H134C99 170 70 199 70 234V766C70 802 99 830 134 830H635C654 830 670 846 670 865L670 865C670 884 654 900 635 900H134C60 900 0 840 0 766V235C0 160 60 100 134 100H865C940 100 1000 160 1000 234V635C1000 654 984 670 965 670L965 670C946 670 930 654 930 635V234z" />
    <glyph glyph-name="plus"
      unicode="&#xEA17;"
      horiz-adv-x="1000" d="M500 1000C224 1000 0 776 0 500S224 0 500 0S1000 224 1000 500S776 1000 500 1000zM751 446H566V261C566 231 542 206.9999999999999 512 206.9999999999999C482 206.9999999999999 458.0000000000001 231 458.0000000000001 261V446H273C243 446 219 470 219 500S243 554 273 554H458V739C458 769 481.9999999999999 793 511.9999999999999 793C542 793 566 769 566 739V554H751C781 554 805 530 805 500S781 446 751 446z" />
    <glyph glyph-name="reserve"
      unicode="&#xEA18;"
      horiz-adv-x="1000" d="M1000 262.9000000000001L923.9 732.9000000000001A38.1 38.1 0 0 1 886.3 764.8000000000001H124.2A38.1 38.1 0 0 1 86.6 732.9000000000001L10.5 262.9000000000001A38.1 38.1 0 0 1 48.1 218.7000000000001H961.9A38.1 38.1 0 0 1 1000 262.9000000000001zM92.8 294.9L124.4 490L156 294.9zM232.8 294.9H232.8L169.4 688.4H853.4000000000001L917.2 294.9zM771.5 530H314.6A38.1 38.1 0 0 1 314.6 453.8000000000001H771.5A38.1 38.1 0 0 1 771.5 530z" />
    <glyph glyph-name="rotate_left"
      unicode="&#xEA19;"
      horiz-adv-x="1000" d="M260 576.2L197.5 638.7C252.5 748.7 367.5 831.2 500 831.2A330 330 0 1 0 500 171.2000000000001A321.9 321.9 0 0 0 252.5 286.8000000000001L170 215.3A429.4 429.4 0 0 1 500 61.3A440 440 0 1 1 500 941.3C335 941.3 192 853.3 120.5 715.8L60 776.2V556.2z" />
    <glyph glyph-name="rotate_right"
      unicode="&#xEA1A;"
      horiz-adv-x="1000" d="M940 556.2V776.2L880 715.7C808 853.2 665 941.2 500 941.2A440 440 0 1 1 500 61.2000000000001A429.4 429.4 0 0 1 830 215.2000000000001L747.5 286.7000000000002A321.9 321.9 0 0 0 500 171.3A330 330 0 1 0 500 831.3C632 831.3 747.5 748.8 802.5 638.8L740 576.2z" />
    <glyph glyph-name="search"
      unicode="&#xEA1B;"
      horiz-adv-x="1000" d="M952.8 122.2000000000001L785.4000000000001 290A415.00000000000006 415.00000000000006 0 1 1 727.9000000000001 230L894 63.4000000000001A41.6 41.6 0 0 1 952.8 122.2000000000001zM458.8 213A330.6 330.6 0 1 0 789.3000000000001 543.6A331 331 0 0 0 458.8 213z" />
    <glyph glyph-name="send"
      unicode="&#xEA1C;"
      horiz-adv-x="1000" d="M36.9 95.9000000000001A34.4 34.4 0 0 0 17.6 101.7000000000001A34.8 34.8 0 0 0 1.9 130.9000000000001V436.1A35.00000000000001 35.00000000000001 0 0 0 31.9 470.8L431 523.9L30 578.2A35.1 35.1 0 0 0 0 613.1L1.9 920A35.00000000000001 35.00000000000001 0 0 0 50.6 952L973.8 557.5999999999999A35.1 35.1 0 0 0 973.8 493.2L50.6 98.7000000000001A34.6 34.6 0 0 0 36.9 95.9000000000001zM71.9 405.4000000000001V183.9L870.9000000000001 525.4L71.5 867.1L70 643.5L698.4000000000001 558.3A35.00000000000001 35.00000000000001 0 0 0 698.4000000000001 488.9z" />
    <glyph glyph-name="send_plus"
      unicode="&#xEA1D;"
      horiz-adv-x="1000" d="M36.9 45.9000000000001A34.4 34.4 0 0 0 17.6 51.7A34.8 34.8 0 0 0 1.9 80.9000000000001V386.1A35.00000000000001 35.00000000000001 0 0 0 31.9 420.8L431 473.9L30 528.2A35.1 35.1 0 0 0 0 563.1L1.9 870A35.00000000000001 35.00000000000001 0 0 0 50.6 902L973.8 507.6A35.1 35.1 0 0 0 973.8 443.2000000000001L50.6 48.7A34.6 34.6 0 0 0 36.9 45.9000000000001zM71.9 355.4000000000001V133.9L870.9000000000001 475.4L71.5 817.1L70 593.5L698.4000000000001 508.3A35.00000000000001 35.00000000000001 0 0 0 698.4000000000001 438.9zM925.1 850H847.3000000000001V928.1A34.9 34.9 0 0 1 777.3000000000001 928.1V850H700A34.9 34.9 0 0 1 700 780H777.8V702.3A34.9 34.9 0 0 1 847.8 702.3V780H925.6A34.9 34.9 0 0 1 925.6 850z" />
    <glyph glyph-name="time"
      unicode="&#xEA1E;"
      horiz-adv-x="1000" d="M500 925A430 430 0 1 0 70 495A430 430 0 0 0 500 925M500 995A500 500 0 1 1 1000 495A500 500 0 0 1 500 995zM775 460H495A35.00000000000001 35.00000000000001 0 0 0 460 495V835A35.00000000000001 35.00000000000001 0 0 0 530 835V530H775A35.00000000000001 35.00000000000001 0 0 0 775 460z" />
    <glyph glyph-name="user"
      unicode="&#xEA1F;"
      horiz-adv-x="1000" d="M1000 505A500 500 0 1 1 500 5H500.8A499.2 499.2 0 0 1 1000 505zM500 935A430 430 0 0 0 839.4 241.5A354.6 354.6 0 0 1 614.5 490A191.49999999999997 191.49999999999997 0 0 0 380.5000000000001 490A354.90000000000003 354.90000000000003 0 0 1 156.8 246.2000000000001A430 430 0 0 0 500 935zM648.1999999999999 101.3L645.3999999999999 100.3999999999999C639.6999999999999 98.3 633.9999999999999 96.3 628.1999999999999 94.4999999999999L626.4999999999999 94.4999999999999C620.3999999999999 92.5999999999999 614.1999999999999 90.7999999999998 607.8999999999999 89.1999999999998L606.4 89.1999999999998C600.0999999999999 87.4999999999999 593.6999999999999 86.0999999999999 587.3 84.6999999999998L585.7 84.6999999999998C579.3 83.3999999999999 572.9 82.3 566.4 81.1999999999999L564.7 81.1999999999999C558.2 80.1999999999999 551.5999999999999 79.3999999999999 544.7 78.6999999999999L543.1 78.6999999999999C536.3000000000001 78 529.3 77.4999999999999 522.4 77.0999999999999H522Q511.2 76.4999999999999 500.4000000000001 76.4999999999999L492.9000000000001 76.4999999999999Q486.6 76.4999999999999 480.3000000000001 76.4999999999999C475.0000000000001 76.4999999999999 469.7 77.0999999999999 464.4 77.5999999999999L460.7 77.5999999999999A420 420 0 0 0 216.5 184.5999999999999A286.2 286.2 0 0 0 373.6 411.2A261.40000000000003 261.40000000000003 0 0 1 621.3 411.2A285.6 285.6 0 0 0 779 179.0999999999999A424.4 424.4 0 0 0 660 106.1C656.3 104.5 652.3000000000001 102.8 648.1999999999999 101.3zM500 795A110 110 0 1 0 390 685A110 110 0 0 0 500 795M500 865A180 180 0 1 1 680 685A180 180 0 0 1 500 865z" />
    <glyph glyph-name="zoom_in"
      unicode="&#xEA20;"
      horiz-adv-x="1000" d="M622.9 590H510V702.9A45 45 0 0 1 420 702.9V590H307.1A45 45 0 0 1 307.1 500H420V387.1A45 45 0 0 1 510 387.1V500H622.9A45 45 0 1 1 622.9 590zM952.8 122.2000000000001L785.4000000000001 290A415.00000000000006 415.00000000000006 0 1 1 727.9000000000001 230L894 63.4000000000001A41.6 41.6 0 0 1 952.8 122.2000000000001zM458.8 213A330.6 330.6 0 1 0 789.3000000000001 543.6A331 331 0 0 0 458.8 213z" />
    <glyph glyph-name="zoom_out"
      unicode="&#xEA21;"
      horiz-adv-x="1000" d="M622.9 590H307.1A45 45 0 0 1 307.1 500H622.9A45 45 0 1 1 622.9 590zM952.8 122.2000000000001L785.4000000000001 290A415.00000000000006 415.00000000000006 0 1 1 727.9000000000001 230L894 63.4000000000001A41.6 41.6 0 0 1 952.8 122.2000000000001zM458.8 213A330.6 330.6 0 1 0 789.3000000000001 543.6A331 331 0 0 0 458.8 213z" />
  </font>
</defs>
</svg>
